<svg width="827" height="129" viewBox="0 0 827 129" fill="none" xmlns="http://www.w3.org/2000/svg">
<path d="M813.089 0.00443338C765.056 1.11651 724.334 1.67254 730.648 25.3333C734.925 41.3609 743.024 37.2162 757.515 34.4028C762.181 33.4969 766.46 37.4347 766.428 42.6276C766.328 58.65 766.502 80.9256 767.54 107.324C767.843 115.482 774.208 121.811 781.581 121.44C789.014 121.089 794.781 114.2 794.461 106.053C793.335 77.425 793.248 53.824 793.412 38.0292C793.458 33.6062 796.661 30.0043 800.695 29.8305C804.713 29.657 808.871 29.5906 813.138 29.5342C830.819 29.2993 830.759 -0.404766 813.089 0.00443338Z" fill="#7207B0"/>
<path d="M781.581 121.439C774.209 121.811 767.843 115.482 767.539 107.324C767.241 99.7427 767.016 92.5004 766.847 85.6496C778.298 84.307 788.082 76.8631 793.441 66.3449C793.58 78.0088 793.883 91.3689 794.461 106.053C794.781 114.199 789.015 121.087 781.581 121.439Z" fill="#CFC8D2" fill-opacity="0.15"/>
<path d="M799.335 7.71123V7.57174C799.335 3.60002 796.341 0.410869 792.718 0.527579C777.65 1.01269 764.045 1.82041 753.389 3.8351C749.688 4.53465 747.339 8.5709 748.284 12.5535L748.317 12.6914C749.159 16.2363 752.34 18.4783 755.634 17.8561C757.95 17.4186 760.513 17.0277 763.31 16.6866C771.9 15.6383 782.082 15.11 793.09 14.7552C796.568 14.6429 799.335 11.5238 799.335 7.71123Z" fill="#CFC8D2" fill-opacity="0.45"/>
<path d="M783.997 0.858935C779.578 1.05725 775.324 1.30229 771.277 1.61898C767.875 1.88537 765.236 4.98011 765.236 8.71818C765.236 12.8526 768.439 16.1094 772.202 15.8152C776.106 15.5102 780.235 15.273 784.536 15.0803C788.014 14.9245 790.758 11.7844 790.758 7.97047V7.96952C790.758 3.92497 787.684 0.693357 783.997 0.858935Z" fill="#CFC8D2" fill-opacity="0.15"/>
<path d="M766.428 42.6277C766.376 50.9239 766.398 60.8986 766.576 72.2535C766.635 76.0845 769.487 79.1574 772.984 79.1574H773.152C776.737 79.1574 779.621 75.9337 779.559 72.0049C779.404 62.0899 779.356 52.3094 779.416 42.7247C779.431 40.2427 779.083 37.8209 778.398 35.5318C777.089 31.1558 772.366 29.3328 768.828 31.8172L768.715 31.8962C766.258 33.6189 765.137 36.9356 766.05 39.9711C766.307 40.8282 766.435 41.7255 766.428 42.6277Z" fill="#CFC8D2" fill-opacity="0.45"/>
<path d="M781.582 121.439C774.358 121.804 768.1 115.736 767.566 107.818C780.954 103.839 791.242 91.6014 793.597 76.4053C793.768 85.5002 794.043 95.4301 794.461 106.053C794.781 114.199 789.015 121.087 781.582 121.439Z" fill="#CFC8D2" fill-opacity="0.45"/>
<path d="M777.887 84.3421C781.473 84.3421 784.381 81.1559 784.381 77.2256C784.381 73.2952 781.473 70.109 777.887 70.109C774.3 70.109 771.393 73.2952 771.393 77.2256C771.393 81.1559 774.3 84.3421 777.887 84.3421Z" fill="#CFC8D2" fill-opacity="0.15"/>
<path d="M813.279 14.233C816.865 14.233 819.773 11.0469 819.773 7.11651C819.773 3.18617 816.865 0 813.279 0C809.692 0 806.785 3.18617 806.785 7.11651C806.785 11.0469 809.692 14.233 813.279 14.233Z" fill="#CFC8D2" fill-opacity="0.15"/>
<path d="M714.323 93.6142H671.393C669.142 93.6142 667.293 92.0213 667.197 89.9997C667.103 88.027 667.016 85.8712 666.943 83.5576C666.876 81.4006 668.826 79.6276 671.226 79.6715C689.327 80.0029 704.446 81.1351 705.055 64.4861C704.449 48.0054 688.351 49.9122 671.774 50.2388C669.322 50.2872 667.353 48.44 667.496 46.2388C667.689 43.254 667.925 40.2716 668.203 37.2922C668.513 33.9733 671.59 31.4166 675.294 31.4166H709.159C730.642 31.1091 730.673 2.31763 709.158 2H667.681C651.553 2 638.104 12.8629 636.398 27.2679C633.242 53.9161 633.774 79.5012 634.775 96.2715C637.176 132.304 688.061 121.576 714.324 123.03C735.71 122.923 735.728 93.7136 714.323 93.6142Z" fill="#7207B0"/>
<path d="M714.325 123.031C694.866 121.954 661.892 127.561 645.135 115.888C652.747 120.219 661.771 122.729 671.446 122.729C692.61 122.729 710.655 110.726 717.621 93.8789C735.662 96.799 734.549 122.929 714.325 123.031Z" fill="#CFC8D2" fill-opacity="0.45"/>
<path d="M652.14 28.7747C652.767 23.4869 656.585 19.1631 661.772 17.2692C664.717 16.1944 666.592 13.5674 666.592 10.7104V10.7087C666.592 5.66216 660.901 2.19784 655.707 4.111C645.306 7.94253 637.656 16.6403 636.399 27.2681C634.393 44.2118 633.877 60.7233 634.025 74.814C634.065 78.7193 637.596 81.8655 641.94 81.8655C646.34 81.8655 649.895 78.6399 649.854 74.6833C649.71 61.0542 650.206 45.1045 652.14 28.7747Z" fill="#CFC8D2" fill-opacity="0.45"/>
<path d="M653.118 15.9187C649.719 11.8198 642.744 12.2587 640.029 16.7513C638.114 19.9213 636.848 23.4715 636.399 27.2684C635.81 32.2388 635.351 37.1717 634.998 42.0176C634.704 46.0578 638.259 49.4835 642.762 49.4835H643.03C647.125 49.4835 650.525 46.631 650.793 42.9567C651.132 38.2942 651.575 33.5508 652.14 28.7747C652.348 26.9962 652.933 25.2701 653.864 23.6895C655.291 21.2679 655.118 18.3369 653.299 16.1377L653.118 15.9187Z" fill="#CFC8D2" fill-opacity="0.55"/>
<path d="M650.296 73.6744C654.668 73.6744 658.212 70.4883 658.212 66.5579C658.212 62.6276 654.668 59.4414 650.296 59.4414C645.925 59.4414 642.381 62.6276 642.381 66.5579C642.381 70.4883 645.925 73.6744 650.296 73.6744Z" fill="#CBE1FF" fill-opacity="0.15"/>
<path d="M682.568 21.7075C686.94 21.7075 690.484 18.5213 690.484 14.591C690.484 10.6607 686.94 7.47449 682.568 7.47449C678.196 7.47449 674.652 10.6607 674.652 14.591C674.652 18.5213 678.196 21.7075 682.568 21.7075Z" fill="#A9CFFC" fill-opacity="0.15"/>
<path d="M606.885 123.449C601.383 123.449 596.167 120.399 593.601 115.3C583.795 95.8105 572.872 78.6484 563.019 64.7766C561.223 62.2481 557.211 63.5431 557.266 66.6345C557.477 78.5627 558.005 92.3842 559.066 107.74C559.626 115.837 553.453 122.851 545.278 123.405C537.101 123.962 530.023 117.844 529.464 109.747C527.565 45.2133 521.954 8.61363 538.474 3.23521C553.118 -1.51387 563.528 16.4961 585.078 45.2382C586.83 47.5744 590.568 46.49 590.774 43.5872C591.422 34.4805 592.441 24.7356 593.968 14.5407C595.171 6.51212 602.717 0.970023 610.822 2.16109C618.926 3.35287 623.937 10.7626 623.318 18.8562C619.516 68.6259 622.582 84.6601 622.033 106.592C621.659 121.586 615.75 123.575 606.885 123.449Z" fill="#7207B0"/>
<path d="M623.319 18.8566C619.516 68.6269 622.582 84.6603 622.033 106.591C621.66 121.585 615.75 123.576 606.885 123.45C601.382 123.45 596.166 120.399 593.602 115.299C588.731 105.621 583.587 96.5186 578.434 88.1071C596.851 77.4252 609.222 57.6179 609.222 34.9494C609.222 23.7338 606.195 13.218 600.903 4.16128C603.767 2.42485 607.239 1.63492 610.821 2.16154C618.927 3.35213 623.937 10.7628 623.319 18.8566ZM545.279 123.405C537.101 123.962 530.023 117.844 529.465 109.746C529.302 104.235 529.113 98.9287 528.911 93.8285C534.659 95.5697 540.762 96.5043 547.084 96.5043C550.918 96.5043 554.67 96.1604 558.313 95.5009C558.528 99.4601 558.777 103.543 559.067 107.739C559.627 115.838 553.454 122.852 545.279 123.405Z" fill="#7207B0"/>
<path d="M622.033 106.591C621.66 121.585 615.75 123.576 606.885 123.45C601.382 123.45 596.166 120.399 593.602 115.299C593.307 114.713 593.01 114.13 592.713 113.548C606.959 103.45 617.385 88.4013 621.422 70.9374C621.605 85.0705 622.323 95.0075 622.033 106.591Z" fill="#7207B0"/>
<path d="M538.474 3.2352C527.464 6.81954 526.284 24.2737 527.284 54.6185C527.409 58.4154 530.555 61.429 534.39 61.429H534.536C538.553 61.429 541.775 58.1355 541.643 54.159C541.363 45.6946 541.26 38.3997 541.502 32.1885C541.863 22.9261 542.958 18.7729 543.64 17.0434C544.595 17.5918 546.501 18.9729 549.617 22.3928C549.921 22.7263 550.221 23.0626 550.519 23.4015C553.486 26.7768 558.83 26.6215 561.558 23.0544L561.647 22.937C563.687 20.2728 563.556 16.5599 561.339 14.039C553.294 4.89287 546.524 0.624864 538.474 3.2352Z" fill="#CFC8D2" fill-opacity="0.45"/>
<path d="M541.502 32.1883C541.7 27.0888 542.122 23.5386 542.574 21.0887C543.046 18.5307 542.077 15.9225 540.028 14.2962L539.913 14.2049C535.734 10.8855 529.465 13.1528 528.474 18.3675C527.238 24.8687 526.9 33.3433 527.025 43.7365C527.072 47.6325 530.274 50.7685 534.208 50.7685C538.207 50.7685 541.437 47.53 541.389 43.5683C541.339 39.43 541.367 35.6414 541.502 32.1883Z" fill="#CFC8D2" fill-opacity="0.55"/>
<path d="M592.754 23.4226C592.326 26.8399 591.944 30.2628 591.609 33.6903C591.202 37.8689 594.522 41.4838 598.759 41.4838H598.765C602.466 41.4838 605.556 38.6961 605.912 35.0462C606.232 31.7564 606.597 28.471 607.007 25.1908C607.538 20.9394 604.206 17.1829 599.882 17.1829C596.258 17.1826 593.2 19.8594 592.754 23.4226ZM591.824 82.5451C588.255 76.6533 584.542 70.849 580.686 65.1374C578.375 61.7125 573.614 60.9679 570.355 63.5282L570.222 63.6332C567.327 65.911 566.695 70.0089 568.749 73.0538C572.477 78.5774 576.068 84.1907 579.519 89.8886C581.768 93.6049 586.851 94.4487 590.186 91.645L590.317 91.5347C592.968 89.3011 593.614 85.5023 591.824 82.5451Z" fill="#CFC8D2" fill-opacity="0.45"/>
<path d="M590.47 83.6762C594.437 83.6762 597.654 80.49 597.654 76.5597C597.654 72.6293 594.437 69.4431 590.47 69.4431C586.502 69.4431 583.286 72.6293 583.286 76.5597C583.286 80.49 586.502 83.6762 590.47 83.6762Z" fill="#CFC8D2" fill-opacity="0.15"/>
<path d="M535.433 82.3008C539.401 82.3008 542.617 79.1146 542.617 75.1843C542.617 71.2539 539.401 68.0677 535.433 68.0677C531.465 68.0677 528.249 71.2539 528.249 75.1843C528.249 79.1146 531.465 82.3008 535.433 82.3008Z" fill="#CFC8D2" fill-opacity="0.15"/>
<path d="M516.242 67.6668C513.335 26.2337 502.792 -2.1813 465.984 0.131521C442.615 1.59986 428.166 29.2802 424.974 57.6947C421.279 90.5953 417.252 119.326 438.206 120.227C452.151 117.45 453.857 112.578 452.894 103.921C452.883 103.82 452.345 98.5496 452.151 90.6936C452.091 88.2331 453.951 86.1503 456.4 85.929C466.164 85.0483 475.221 83.8872 482.58 82.81C485.34 82.4058 487.836 84.5065 487.911 87.2974C488.447 107.309 482.639 118.683 501.575 120.204C523.682 121.98 518.366 97.9486 516.242 67.6668ZM470.831 27.9776C476.101 27.482 479.59 33.5355 483.206 47.6521C483.892 50.3333 482.112 53.022 479.376 53.4283C473.997 54.2272 467.564 55.0912 460.591 55.8411C457.36 56.1885 454.759 53.2048 455.57 50.0553C458.19 39.8715 464.075 28.0063 470.831 27.9776Z" fill="#7207B0"/>
<path d="M431.019 61.2579C431.066 61.2659 431.113 61.2739 431.16 61.2819C434.945 61.9242 438.531 59.4025 439.262 55.6304C441.235 45.4577 444.856 35.736 449.567 28.1769C451.858 24.4965 455.965 18.9245 461.202 16.0994C463.501 14.859 464.927 12.4484 464.927 9.83422C464.927 4.46525 459.203 0.982361 454.477 3.52387C439.638 11.5042 429.328 32.1436 425.284 52.9332C424.527 56.8269 427.111 60.5927 431.019 61.2579Z" fill="#CFC8D2" fill-opacity="0.45"/>
<path d="M501.58 121.234C482.642 119.714 488.45 108.339 487.914 88.3263C487.869 86.6332 486.934 85.1939 485.586 84.4151C498.087 72.3914 505.865 55.4851 505.865 36.7624C505.865 29.3672 504.653 22.257 502.415 15.6194C511.036 27.9707 514.7 46.6795 516.244 68.6962C518.368 98.9796 523.686 123.01 501.58 121.234Z" fill="#7207B0" fill-opacity="0.63"/>
<path d="M501.485 121.361C492.459 120.636 489.054 117.672 487.908 112.602C502.093 104.614 512.674 90.9727 516.606 74.7313C518.855 102.165 522.132 123.021 501.485 121.361Z" fill="#CFC8D2" fill-opacity="0.35"/>
<path d="M496.997 45.4035C496.638 44.0024 496.281 42.6766 495.923 41.4193C494.681 37.0509 489.68 34.9823 485.719 37.1983C485.677 37.2218 485.635 37.245 485.593 37.2685C482.733 38.8713 481.348 42.2228 482.245 45.3782C482.565 46.5032 482.885 47.6906 483.205 48.9417C483.891 51.6253 482.111 54.3134 479.376 54.7197C478.181 54.8968 476.933 55.0772 475.64 55.2592C472.127 55.753 469.514 58.7631 469.514 62.3134C469.514 66.6425 473.339 69.9704 477.623 69.3692C478.902 69.1895 480.183 69.0044 481.466 68.8142C486.751 68.0279 491.478 65.0238 494.432 60.5687C497.391 56.1139 498.323 50.5878 496.997 45.4035Z" fill="#CFC8D2" fill-opacity="0.56"/>
<path d="M462.41 64.4696C462.41 68.333 459.28 71.4649 455.42 71.4649C451.56 71.4649 448.43 68.333 448.43 64.4696C448.43 60.6061 451.56 57.4742 455.42 57.4742C459.28 57.4742 462.41 60.6061 462.41 64.4696Z" fill="#DBD7DE" fill-opacity="0.15"/>
<path d="M361.126 126.454C314.657 126.455 298.579 72.0627 331.015 72.2446C339.686 72.2932 346.282 79.7323 345.78 87.9083C345.603 90.8002 346.551 92.1618 348.031 93.3168C350.4 95.1666 354.513 96.3373 359.01 96.7292C368.204 97.5302 387.15 91.5256 375.191 81.949C362.254 71.5892 339.895 65.4192 329.417 51.7149C321.212 40.9828 323.134 25.8059 331.644 16.0929C343.455 2.61388 380.834 1.64794 395.898 11.9473C412.533 23.321 396.678 47.2894 379.222 37.0752C376.592 34.9882 372.011 34.0747 367.518 33.9217C363.095 33.771 361.358 39.2905 365.15 41.4466C375.4 47.2752 387.122 52.2088 396.093 59.8172C428.641 87.4228 400.651 126.453 361.126 126.454Z" fill="#7207B0"/>
<path d="M361.125 126.454C323.61 126.456 305.903 91.0021 317.542 77.4382C322.442 88.8434 334.284 96.8826 348.118 96.8826C350.527 96.8826 352.875 96.6383 355.138 96.1757C356.371 96.4272 357.672 96.6122 359.011 96.7284C368.015 97.5136 386.369 91.773 375.894 82.5406C379.191 77.6896 381.105 71.9206 381.105 65.7269C381.105 58.257 378.322 51.4039 373.683 46.0381C381.525 50.13 389.542 54.2599 396.092 59.8179C428.642 87.4225 400.65 126.454 361.125 126.454Z" fill="#7207B0"/>
<path d="M340.957 54.2362L341.079 54.1461C344.332 51.7388 344.932 47.2581 342.322 44.231C342.084 43.9548 341.854 43.6723 341.633 43.3837C337.451 37.9111 339.174 29.8245 343.253 25.168C345.413 22.7033 354.103 19.2329 366.666 19.2329C369.14 19.2329 371.466 19.3688 373.613 19.6058C377.127 19.9938 380.442 17.9647 381.532 14.7849L381.579 14.6485C383.026 10.437 380.063 5.99227 375.407 5.47585C358.942 3.6493 339.556 7.06281 331.644 16.0921C323.133 25.8061 321.211 40.983 329.417 51.7146C329.784 52.1947 330.165 52.6654 330.559 53.1261C333.119 56.1183 337.751 56.6088 340.957 54.2362Z" fill="#CFC8D2" fill-opacity="0.45"/>
<path d="M331.645 16.0922C329.981 17.9906 328.569 20.0975 327.436 22.3392C325.12 26.9182 328.64 32.2284 334.011 32.362L334.163 32.3658C337.095 32.44 339.807 30.891 341.082 28.3962C341.687 27.2116 342.421 26.1183 343.253 25.168C345.003 23.1706 351.044 20.5143 359.958 19.579C363.568 19.2002 366.349 16.392 366.548 12.9669L366.556 12.8245C366.807 8.47332 362.859 4.95732 358.273 5.43673C347.152 6.59932 336.883 10.1134 331.645 16.0922Z" fill="#CFC8D2" fill-opacity="0.55"/>
<path d="M386.025 70.4071C387.277 71.4689 388.403 72.5497 389.403 73.6463C391.84 76.3176 395.98 76.8961 399.114 74.9806L399.241 74.9031C403.041 72.5819 403.8 67.6296 400.848 64.3895C399.435 62.8376 397.852 61.3112 396.091 59.8181C390.132 54.7619 382.957 50.8868 375.806 47.1459C373.149 45.7556 369.852 46.0597 367.543 47.9251L367.422 48.0233C363.588 51.1259 364.139 56.8703 368.518 59.2426C375.341 62.938 382.584 67.4892 386.025 70.4071Z" fill="#CFC8D2" fill-opacity="0.55"/>
<path d="M361.125 126.454C329.183 126.456 311.602 100.754 314.264 84.7467C322.578 100.308 339.654 110.98 359.367 110.98C382.71 110.98 402.353 96.0192 408.132 75.6946C418.088 100.317 393.47 126.454 361.125 126.454Z" fill="#7207B0"/>
<path d="M348.03 93.3173C349.695 94.6172 352.222 95.5827 355.138 96.1757C352.831 96.6466 350.478 96.8836 348.118 96.8826C334.284 96.8826 322.442 88.8434 317.542 77.4381C320.317 74.2002 324.765 72.2099 331.014 72.2455C339.687 72.293 346.282 79.732 345.78 87.9088C345.604 90.8004 346.551 92.162 348.03 93.3173Z" fill="#7207B0"/>
<path d="M385.643 75.4271C389.804 75.4271 393.177 72.2409 393.177 68.3106C393.177 64.3803 389.804 61.1942 385.643 61.1942C381.481 61.1942 378.108 64.3803 378.108 68.3106C378.108 72.2409 381.481 75.4271 385.643 75.4271Z" fill="#CFC8D2" fill-opacity="0.15"/>
<path d="M335.236 88.0991C339.397 88.0991 342.77 84.9129 342.77 80.9826C342.77 77.0523 339.397 73.8662 335.236 73.8662C331.074 73.8662 327.701 77.0523 327.701 80.9826C327.701 84.9129 331.074 88.0991 335.236 88.0991Z" fill="#CFC8D2" fill-opacity="0.55"/>
<path d="M255.126 128.454C208.657 128.455 192.579 74.0627 225.015 74.2446C233.686 74.2932 240.282 81.7323 239.78 89.9083C239.603 92.8002 240.551 94.1618 242.031 95.3168C244.4 97.1666 248.513 98.3373 253.01 98.7292C262.204 99.5302 281.15 93.5256 269.191 83.949C256.254 73.5892 233.895 67.4192 223.417 53.7149C215.212 42.9828 217.134 27.8059 225.644 18.0929C237.455 4.61388 274.834 3.64794 289.898 13.9473C306.533 25.321 290.678 49.2894 273.222 39.0752C270.592 36.9882 266.011 36.0747 261.518 35.9217C257.095 35.771 255.358 41.2905 259.15 43.4466C269.4 49.2752 281.122 54.2088 290.093 61.8172C322.641 89.4228 294.651 128.453 255.126 128.454Z" fill="#7207B0"/>
<path d="M255.125 128.454C217.61 128.456 199.903 93.0021 211.542 79.4382C216.442 90.8435 228.284 98.8827 242.118 98.8827C244.527 98.8827 246.875 98.6383 249.138 98.1758C250.371 98.4272 251.672 98.6122 253.011 98.7285C262.015 99.5136 280.369 93.7731 269.894 84.5407C273.191 79.6896 275.105 73.9206 275.105 67.7269C275.105 60.257 272.322 53.4039 267.683 48.0381C275.525 52.1301 283.542 56.26 290.092 61.8179C322.642 89.4225 294.65 128.454 255.125 128.454Z" fill="#7207B0"/>
<path d="M234.957 56.2362L235.079 56.1461C238.332 53.7388 238.932 49.2581 236.322 46.231C236.084 45.9548 235.854 45.6723 235.633 45.3837C231.451 39.9111 233.174 31.8245 237.253 27.168C239.413 24.7033 248.103 21.2329 260.666 21.2329C263.14 21.2329 265.466 21.3688 267.613 21.6058C271.127 21.9938 274.442 19.9647 275.532 16.7849L275.579 16.6485C277.026 12.437 274.063 7.99227 269.407 7.47585C252.942 5.6493 233.556 9.06281 225.644 18.0921C217.133 27.8061 215.211 42.983 223.417 53.7146C223.784 54.1947 224.165 54.6654 224.559 55.1261C227.119 58.1183 231.751 58.6088 234.957 56.2362Z" fill="#CFC8D2" fill-opacity="0.45"/>
<path d="M225.645 18.0922C223.981 19.9906 222.569 22.0975 221.436 24.3392C219.12 28.9182 222.64 34.2284 228.011 34.362L228.163 34.3658C231.095 34.44 233.807 32.891 235.082 30.3962C235.687 29.2116 236.421 28.1183 237.253 27.168C239.003 25.1706 245.044 22.5143 253.958 21.579C257.568 21.2002 260.349 18.392 260.548 14.9669L260.556 14.8245C260.807 10.4733 256.859 6.95732 252.273 7.43673C241.152 8.59932 230.883 12.1134 225.645 18.0922Z" fill="#CFC8D2" fill-opacity="0.55"/>
<path d="M280.025 72.4071C281.277 73.4689 282.403 74.5497 283.403 75.6463C285.84 78.3176 289.98 78.8961 293.114 76.9806L293.241 76.9031C297.041 74.5819 297.8 69.6296 294.848 66.3895C293.435 64.8376 291.852 63.3112 290.091 61.8181C284.132 56.7619 276.957 52.8868 269.806 49.1459C267.149 47.7556 263.852 48.0597 261.543 49.9251L261.422 50.0233C257.588 53.1259 258.139 58.8703 262.518 61.2426C269.341 64.938 276.584 69.4892 280.025 72.4071Z" fill="#CFC8D2" fill-opacity="0.55"/>
<path d="M255.125 128.454C223.183 128.456 205.602 102.754 208.264 86.7467C216.578 102.308 233.654 112.98 253.367 112.98C276.71 112.98 296.353 98.0192 302.132 77.6946C312.088 102.317 287.47 128.454 255.125 128.454Z" fill="#7207B0"/>
<path d="M242.03 95.3173C243.695 96.6172 246.222 97.5827 249.138 98.1757C246.831 98.6467 244.478 98.8836 242.118 98.8826C228.284 98.8826 216.442 90.8434 211.542 79.4382C214.317 76.2002 218.765 74.21 225.014 74.2456C233.687 74.293 240.282 81.732 239.78 89.9088C239.604 92.8005 240.551 94.1621 242.03 95.3173Z" fill="#7207B0"/>
<path d="M279.643 77.4271C283.804 77.4271 287.177 74.2409 287.177 70.3106C287.177 66.3803 283.804 63.1942 279.643 63.1942C275.481 63.1942 272.108 66.3803 272.108 70.3106C272.108 74.2409 275.481 77.4271 279.643 77.4271Z" fill="#CFC8D2" fill-opacity="0.15"/>
<path d="M229.236 90.0991C233.397 90.0991 236.77 86.9129 236.77 82.9826C236.77 79.0523 233.397 75.8662 229.236 75.8662C225.074 75.8662 221.701 79.0523 221.701 82.9826C221.701 86.9129 225.074 90.0991 229.236 90.0991Z" fill="#CFC8D2" fill-opacity="0.55"/>
<path d="M199.242 67.6668C196.335 26.2337 185.792 -2.1813 148.984 0.131521C125.615 1.59986 111.166 29.2802 107.974 57.6947C104.279 90.5953 100.252 119.326 121.206 120.227C135.151 117.45 136.857 112.578 135.894 103.921C135.883 103.82 135.345 98.5496 135.151 90.6936C135.091 88.2331 136.951 86.1503 139.4 85.929C149.164 85.0483 158.221 83.8872 165.58 82.81C168.34 82.4058 170.836 84.5065 170.911 87.2974C171.447 107.309 165.639 118.683 184.575 120.204C206.682 121.98 201.366 97.9486 199.242 67.6668ZM153.831 27.9776C159.101 27.482 162.59 33.5355 166.206 47.6521C166.892 50.3333 165.112 53.022 162.376 53.4283C156.997 54.2272 150.564 55.0912 143.591 55.8411C140.36 56.1885 137.759 53.2048 138.57 50.0553C141.19 39.8715 147.075 28.0063 153.831 27.9776Z" fill="#7207B0"/>
<path d="M114.019 61.2579C114.066 61.2659 114.113 61.2739 114.16 61.2819C117.945 61.9242 121.531 59.4025 122.262 55.6304C124.235 45.4577 127.856 35.736 132.567 28.1769C134.858 24.4965 138.965 18.9245 144.202 16.0994C146.501 14.859 147.927 12.4484 147.927 9.83422C147.927 4.46525 142.203 0.982361 137.477 3.52387C122.638 11.5042 112.328 32.1436 108.284 52.9332C107.527 56.8269 110.111 60.5927 114.019 61.2579Z" fill="#CFC8D2" fill-opacity="0.45"/>
<path d="M184.58 121.234C165.642 119.714 171.45 108.339 170.914 88.3263C170.869 86.6332 169.934 85.1939 168.586 84.4151C181.087 72.3914 188.865 55.4851 188.865 36.7624C188.865 29.3672 187.653 22.257 185.415 15.6194C194.036 27.9707 197.7 46.6795 199.244 68.6962C201.368 98.9796 206.686 123.01 184.58 121.234Z" fill="#7207B0" fill-opacity="0.63"/>
<path d="M184.485 121.361C175.459 120.636 172.054 117.672 170.908 112.602C185.093 104.614 195.674 90.9726 199.606 74.7313C201.855 102.165 205.132 123.021 184.485 121.361Z" fill="#CFC8D2" fill-opacity="0.35"/>
<path d="M179.997 45.4035C179.638 44.0024 179.281 42.6766 178.924 41.4193C177.681 37.0509 172.681 34.9823 168.719 37.1983C168.677 37.2218 168.635 37.245 168.593 37.2685C165.733 38.8713 164.348 42.2228 165.245 45.3782C165.565 46.5032 165.885 47.6906 166.206 48.9417C166.891 51.6253 165.111 54.3134 162.376 54.7197C161.181 54.8968 159.933 55.0772 158.64 55.2592C155.127 55.753 152.514 58.7631 152.514 62.3134C152.514 66.6425 156.339 69.9704 160.623 69.3692C161.902 69.1895 163.183 69.0044 164.466 68.8142C169.751 68.0279 174.478 65.0238 177.432 60.5687C180.391 56.1139 181.323 50.5878 179.997 45.4035Z" fill="#CFC8D2" fill-opacity="0.56"/>
<path d="M145.41 64.4696C145.41 68.333 142.28 71.4649 138.42 71.4649C134.56 71.4649 131.43 68.333 131.43 64.4696C131.43 60.6061 134.56 57.4742 138.42 57.4742C142.28 57.4742 145.41 60.6061 145.41 64.4696Z" fill="#DBD7DE" fill-opacity="0.15"/>
<path d="M95.9983 105.831C96.0173 74.1602 97.7571 35.5424 93.5469 15.0829C91.7717 6.45589 88.5279 1.12806 83.7056 0.402417C62.9159 -2.72668 63.4749 12.7653 62.742 33.9011C62.6238 37.3085 59.7598 40.0981 56.0847 40.351C50.6645 40.7235 45.2574 41.2433 39.8702 41.9095C35.4517 42.457 31.5584 39.2048 31.702 35.0832C32.4295 14.2017 35.3586 1.98393 18.3612 1.05547C9.64507 0.579379 2.14437 4.08921 1.27663 14.3952C1.15073 15.8906 -2.02228 51.6436 2.13437 107.828C2.70543 115.546 9.64994 121.454 17.8891 121.453C26.9999 121.487 34.3365 114.245 33.6757 105.831C33.0018 96.7351 32.4916 87.6297 32.1454 78.5183C32.0179 75.1542 34.6224 72.2336 38.2157 71.702C42.9378 71.0031 48.5617 70.3121 54.8954 69.7891C59.0251 69.448 62.613 72.393 62.7433 76.2266C63.0702 85.8395 63.6121 96.4107 64.4567 107.828C66.2556 127.018 97.0733 124.997 95.9983 105.831Z" fill="#7207B0"/>
<path d="M95.9984 105.831C96.9394 122.623 73.3996 126.255 66.3453 113.991C83.472 105.601 95.3675 89.2898 96.3291 70.334C96.2317 82.2896 96.0035 94.5037 95.9984 105.831Z" fill="#CFC8D2" fill-opacity="0.45"/>
<path d="M15.4234 58.2481C15.2829 43.1444 15.6737 31.5456 16.0481 24.2235C16.2558 20.1638 12.7551 16.7688 8.36173 16.7688C4.25406 16.7688 0.871296 19.7515 0.675387 23.547C0.288698 31.0356 -0.114659 42.8939 0.031503 58.3667C0.0684282 62.2751 3.50273 65.4279 7.72785 65.4279C12.003 65.4279 15.4604 62.203 15.4234 58.2481Z" fill="#CFC8D2" fill-opacity="0.45"/>
<path d="M50.5089 63.8829C50.5089 59.5796 46.4099 56.2536 41.7996 56.8284C39.791 57.0786 37.7858 57.3518 35.7844 57.6478C24.5453 59.3106 16.3705 68.4979 16.7679 79.016C16.8627 81.5044 16.9703 83.9923 17.0905 86.4797C17.2738 90.2837 20.6599 93.2823 24.7761 93.2823C29.1571 93.2823 32.6535 89.9001 32.4599 85.8514C32.343 83.4073 32.2383 80.9628 32.1457 78.5179C32.0175 75.1542 34.6228 72.2341 38.2153 71.7027C40.0917 71.425 41.9717 71.1686 43.8549 70.9334C47.6669 70.4569 50.5089 67.4414 50.5089 63.8829Z" fill="#CFC8D2" fill-opacity="0.56"/>
<path d="M59.1079 59.7941C63.3565 59.7941 66.8007 56.6079 66.8007 52.6776C66.8007 48.7473 63.3565 45.5612 59.1079 45.5612C54.8593 45.5612 51.4152 48.7473 51.4152 52.6776C51.4152 56.6079 54.8593 59.7941 59.1079 59.7941Z" fill="#CFC8D2" fill-opacity="0.15"/>
</svg>
