<svg xmlns="http://www.w3.org/2000/svg" version="1.1" xmlns:xlink="http://www.w3.org/1999/xlink" xmlns:svgjs="http://svgjs.com/svgjs" width="512" height="512" x="0" y="0" viewBox="0 0 150 150" style="enable-background:new 0 0 512 512" xml:space="preserve" class=""><g><path d="m110.17 87.83-1.26 11a76.64 76.64 0 0 1 -14.16-11.2c10.1-11 17-24.58 16.82-35-.2-9.14-6.07-14.68-16.26-14.9-7.88-.17-14.23 4.45-16.62 12.56-3 10 .17 24.18 11.91 37.24-8.6 8.8-19.3 15.47-29.36 16.37-29.24 2.6-36.39-20.75-36.69-21.78l-1.44.42-1.44.41c.07.26 6.69 25.51 37.32 24.12 14.67-.67 24.61-8.08 33.7-17.27a79.68 79.68 0 0 0 14.93 11.74l-8.13 7.76c7.07-1.85 17-2 24.63-1.14-5.23-5.57-11.12-13.58-13.95-20.33zm-17.51-2.43c-10.85-12.13-13.78-25.1-11.09-34.22a14.16 14.16 0 0 1 13.85-10.4c8.57.34 13 4.48 13.15 11.95.2 9.52-6.4 22.27-15.91 32.67z" fill="#000000" data-original="#000000" class=""></path></g></svg>