<svg width="411" height="389" viewBox="0 0 411 389" fill="none" xmlns="http://www.w3.org/2000/svg">
<g id="All">
<g id="SmallCare">
<path id="Vector" d="M399.018 388.109H351.088C344.465 388.109 339.105 383.023 339.105 376.738V331.257C339.105 324.972 344.465 319.886 351.088 319.886H399.018C405.641 319.886 411 324.972 411 331.257V376.738C411 383.023 405.641 388.109 399.018 388.109Z" fill="#8080FF"/>
<path id="Vector_2" d="M59.9121 217.222H11.9824C5.35934 217.222 0 212.137 0 205.852V160.37C0 154.086 5.35934 149 11.9824 149H59.9121C66.5352 149 71.8945 154.086 71.8945 160.37V205.852C71.8945 212.137 66.5352 217.222 59.9121 217.222Z" fill="#B399FF"/>
<path id="Vector_3" d="M399.018 68.2222H351.088C344.465 68.2222 339.105 63.1366 339.105 56.8518V11.3704C339.105 5.08559 344.465 0 351.088 0H399.018C405.641 0 411 5.08559 411 11.3704V56.8518C411 63.1366 405.641 68.2222 399.018 68.2222Z" fill="#8080FF"/>
</g>
<g id="BigCare">
<path id="Vector_4" d="M368.5 103H292.667L206 163.333V223.667L271 284H368.5C386.485 284 401 270.526 401 253.833V133.167C401 116.474 386.485 103 368.5 103Z" fill="#73D0FF"/>
<path id="Vector_5" d="M292.682 103V133.333C292.682 150.118 278.164 163.667 260.176 163.667H206V133.333C206 116.548 220.518 103 238.506 103H292.682Z" fill="#8080FF"/>
<path id="Vector_6" d="M274.555 251.529V284.058H240.277C221.309 284.058 206 269.529 206 251.529V219H240.277C259.246 219 274.555 233.529 274.555 251.529Z" fill="#8080FF"/>
</g>
<g id="MidCare2">
<path id="Vector_7" d="M205.406 217H148.277C129.309 217 114 231.529 114 249.529V336.996C114 354.996 129.309 369.525 148.277 369.525H239.684C258.652 369.525 273.961 354.996 273.961 336.996V282.058L205.406 217Z" fill="#FFCCFF"/>
<path id="Vector_8" d="M240.277 367.525C259.246 367.525 274.555 352.996 274.555 334.996V280.058L206 215V367.525H240.277Z" fill="#FFB3E6"/>
<path id="Vector_9" d="M274.555 247.529V280.058H240.277C221.309 280.058 206 265.529 206 247.529V215H240.277C259.246 215 274.555 229.529 274.555 247.529Z" fill="#73C7B8"/>
</g>
<g id="MidCare1">
<path id="Vector_10" d="M262.535 12H148.277C129.309 12 114 26.5289 114 44.5291V131.996C114 149.996 129.309 164.525 148.277 164.525H205.406L296.812 99.4671V44.5291C296.812 26.5289 281.503 12 262.535 12Z" fill="#FFCCFF"/>
<path id="Vector_11" d="M262.535 12H205.406V164.525L296.812 99.4671V44.5291C296.812 26.5289 281.503 12 262.535 12Z" fill="#DADADA"/>
<path id="Vector_12" d="M295 103V134C295 151.154 280.094 165 261.625 165H206V134C206 116.846 220.906 103 239.375 103H295Z" fill="#73C7B8"/>
</g>
</g>
</svg>
